HIERARCHY
ROOT hip
{
  OFFSET 0.00112043 5.09927 -9.65472
  CHANNELS 6 Xposition Yposition Zposition Zrotation Xrotation Yrotation
  JOINT abdomen
  {
    OFFSET 0 -1.186 -1.5018
    CHANNELS 3 Zrotation Xrotation Yrotation
    JOINT abdomen2
    {
      OFFSET 0 9.964 0.2134
      CHANNELS 3 Zrotation Xrotation Yrotation
      JOINT chest
      {
        OFFSET 0 13.134 -3.2573
        CHANNELS 3 Zrotation Xrotation Yrotation
        JOINT neck
        {
          OFFSET 0 20.686 -1.6905
          CHANNELS 3 Zrotation Xrotation Yrotation
          JOINT head
          {
            OFFSET 0 7.238 -0.1237
            CHANNELS 3 Zrotation Xrotation Yrotation
            End Site
            {
              OFFSET 0 0 0
            }
          }
        }
        JOINT lCollar
        {
          OFFSET 1.7069 20.075 5.0056
          CHANNELS 3 Zrotation Xrotation Yrotation
          JOINT lShldr
          {
            OFFSET 13.6458 -0.047 -4.849
            CHANNELS 3 Zrotation Xrotation Yrotation
            JOINT lForeArm
            {
              OFFSET 28.3255 -0.9759 2.2888
              CHANNELS 3 Zrotation Xrotation Yrotation
              JOINT lHand
              {
                OFFSET 22.1583 -0.53 10.8316
                CHANNELS 3 Zrotation Xrotation Yrotation
                JOINT lThumb1
                {
                  OFFSET 0.786 0.112 2.5817
                  CHANNELS 3 Zrotation Xrotation Yrotation
                  JOINT lThumb2
                  {
                    OFFSET 0.3601 -0.878 4.2331
                    CHANNELS 3 Zrotation Xrotation Yrotation
                    JOINT lThumb2_End
                    {
                      OFFSET 1.8127 -1.216 2.2227
                      CHANNELS 3 Zrotation Xrotation Yrotation
                      End Site
                      {
                        OFFSET 0.0181 -0.0122 0.0222
                      }
                    }
                  }
                }
                JOINT lCarpal1
                {
                  OFFSET 0.9571 1.114 1.7695
                  CHANNELS 3 Zrotation Xrotation Yrotation
                  JOINT lIndex1
                  {
                    OFFSET 4.1246 0.487 4.1451
                    CHANNELS 3 Zrotation Xrotation Yrotation
                    JOINT lIndex2
                    {
                      OFFSET 3.4052 -1.454 2.7682
                      CHANNELS 3 Zrotation Xrotation Yrotation
                      JOINT lIndex2_End
                      {
                        OFFSET 1.4531 -1.795 1.2713
                        CHANNELS 3 Zrotation Xrotation Yrotation
                        End Site
                        {
                          OFFSET 0.0145 -0.0179 0.0127
                        }
                      }
                    }
                  }
                  JOINT lMid1
                  {
                    OFFSET 5.6954 0.21 2.1184
                    CHANNELS 3 Zrotation Xrotation Yrotation
                    JOINT lMid2
                    {
                      OFFSET 3.9766 -1.54 2.3863
                      CHANNELS 3 Zrotation Xrotation Yrotation
                      JOINT lMid2_End
                      {
                        OFFSET 1.4042 -1.926 1.125
                        CHANNELS 3 Zrotation Xrotation Yrotation
                        End Site
                        {
                          OFFSET 0.014 -0.0193 0.0113
                        }
                      }
                    }
                  }
                }
                JOINT lCarpal2
                {
                  OFFSET 2.0956 0.66 -0.3894
                  CHANNELS 3 Zrotation Xrotation Yrotation
                  JOINT lRing1
                  {
                    OFFSET 5.0395 -0.09 2.4971
                    CHANNELS 3 Zrotation Xrotation Yrotation
                    JOINT lRing2
                    {
                      OFFSET 3.7921 -1.552 1.4806
                      CHANNELS 3 Zrotation Xrotation Yrotation
                      JOINT lRing2_End
                      {
                        OFFSET 1.4655 -1.808 0.9609
                        CHANNELS 3 Zrotation Xrotation Yrotation
                        End Site
                        {
                          OFFSET 0.0147 -0.0181 0.0096
                        }
                      }
                    }
                  }
                  JOINT lPinky1
                  {
                    OFFSET 4.9141 -1.269 0.3591
                    CHANNELS 3 Zrotation Xrotation Yrotation
                    JOINT lPinky2
                    {
                      OFFSET 3.1477 -1.685 0.8462
                      CHANNELS 3 Zrotation Xrotation Yrotation
                      JOINT lPinky2_End
                      {
                        OFFSET 0.8055 -1.585 0.7955
                        CHANNELS 3 Zrotation Xrotation Yrotation
                        End Site
                        {
                          OFFSET 0.0081 -0.0158 0.008
                        }
                      }
                    }
                  }
                }
              }
            }
          }
        }
        JOINT rCollar
        {
          OFFSET -1.7069 20.075 5.0056
          CHANNELS 3 Zrotation Xrotation Yrotation
          JOINT rShldr
          {
            OFFSET -13.6458 -0.047 -4.849
            CHANNELS 3 Zrotation Xrotation Yrotation
            JOINT rForeArm
            {
              OFFSET -28.3255 -0.9759 2.2888
              CHANNELS 3 Zrotation Xrotation Yrotation
              JOINT rHand
              {
                OFFSET -22.1583 -0.53 10.8316
                CHANNELS 3 Zrotation Xrotation Yrotation
                JOINT rThumb1
                {
                  OFFSET -0.786 0.112 2.5817
                  CHANNELS 3 Zrotation Xrotation Yrotation
                  JOINT rThumb2
                  {
                    OFFSET -0.3601 -0.878 4.2331
                    CHANNELS 3 Zrotation Xrotation Yrotation
                    JOINT rThumb2_End
                    {
                      OFFSET -1.8127 -1.216 2.2227
                      CHANNELS 3 Zrotation Xrotation Yrotation
                      End Site
                      {
                        OFFSET -0.0181 -0.0122 0.0222
                      }
                    }
                  }
                }
                JOINT rCarpal1
                {
                  OFFSET -0.9571 1.114 1.7695
                  CHANNELS 3 Zrotation Xrotation Yrotation
                  JOINT rIndex1
                  {
                    OFFSET -4.1246 0.487 4.1451
                    CHANNELS 3 Zrotation Xrotation Yrotation
                    JOINT rIndex2
                    {
                      OFFSET -3.4052 -1.454 2.7682
                      CHANNELS 3 Zrotation Xrotation Yrotation
                      JOINT rIndex2_End
                      {
                        OFFSET -1.4531 -1.795 1.2713
                        CHANNELS 3 Zrotation Xrotation Yrotation
                        End Site
                        {
                          OFFSET -0.0145 -0.018 0.0127
                        }
                      }
                    }
                  }
                  JOINT rMid1
                  {
                    OFFSET -5.6954 0.21 2.1184
                    CHANNELS 3 Zrotation Xrotation Yrotation
                    JOINT rMid2
                    {
                      OFFSET -3.9766 -1.54 2.3863
                      CHANNELS 3 Zrotation Xrotation Yrotation
                      JOINT rMid2_End
                      {
                        OFFSET -1.4042 -1.926 1.125
                        CHANNELS 3 Zrotation Xrotation Yrotation
                        End Site
                        {
                          OFFSET -0.014 -0.0193 0.0113
                        }
                      }
                    }
                  }
                }
                JOINT rCarpal2
                {
                  OFFSET -2.0956 0.66 -0.3894
                  CHANNELS 3 Zrotation Xrotation Yrotation
                  JOINT rRing1
                  {
                    OFFSET -5.0395 -0.09 2.4971
                    CHANNELS 3 Zrotation Xrotation Yrotation
                    JOINT rRing2
                    {
                      OFFSET -3.7921 -1.552 1.4806
                      CHANNELS 3 Zrotation Xrotation Yrotation
                      JOINT rRing2_End
                      {
                        OFFSET -1.4655 -1.808 0.9609
                        CHANNELS 3 Zrotation Xrotation Yrotation
                        End Site
                        {
                          OFFSET -0.0147 -0.0181 0.0096
                        }
                      }
                    }
                  }
                  JOINT rPinky1
                  {
                    OFFSET -4.9141 -1.269 0.3592
                    CHANNELS 3 Zrotation Xrotation Yrotation
                    JOINT rPinky2
                    {
                      OFFSET -3.1477 -1.685 0.8462
                      CHANNELS 3 Zrotation Xrotation Yrotation
                      JOINT rPinky2_End
                      {
                        OFFSET -0.8055 -1.585 0.7955
                        CHANNELS 3 Zrotation Xrotation Yrotation
                        End Site
                        {
                          OFFSET -0.0081 -0.0158 0.008
                        }
                      }
                    }
                  }
                }
              }
            }
          }
        }
      }
    }
  }
  JOINT lThigh
  {
    OFFSET 8.367 -8.2066 0.5982
    CHANNELS 3 Zrotation Xrotation Yrotation
    JOINT lShin
    {
      OFFSET 2.1923 -43.463 -0.4932
      CHANNELS 3 Zrotation Xrotation Yrotation
      JOINT lFoot
      {
        OFFSET 0.7333 -45.8593 -2.6451
        CHANNELS 3 Zrotation Xrotation Yrotation
        End Site
        {
          OFFSET 2.6618 -4.2699 12.3931
        }
      }
    }
  }
  JOINT rThigh
  {
    OFFSET -8.367 -8.2066 0.5982
    CHANNELS 3 Zrotation Xrotation Yrotation
    JOINT rShin
    {
      OFFSET -2.1923 -43.463 -0.4931
      CHANNELS 3 Zrotation Xrotation Yrotation
      JOINT rFoot
      {
        OFFSET -0.7333 -45.8593 -2.6451
        CHANNELS 3 Zrotation Xrotation Yrotation
        End Site
        {
          OFFSET -2.6618 -4.2699 12.3931
        }
      }
    }
  }
}
MOTION
Frames:	5
Frame Time:	0.0333333
1.75363 48.6727 8.02624 0 28.9934 -0 -0.293485 2.7441 -0.587319 -0.559722 5.49104 -1.16254 -0.559722 5.49103 -1.16254 3.8353e-006 -19.0048 8.55956e-007 2.33095e-007 15.0059 1.48755e-007 -13.4097 -6.38124 -16.7875 -48.47 -0.648946 -20.2331 -25.8134 39.0896 -50.5319 52.1948 -18.0524 -4.23381 0 0 -3.18055e-015 -1.59028e-015 1.59028e-015 -3.18055e-015 -1.59028e-015 1.59028e-015 -0 3.18055e-015 -7.95139e-016 -3.18055e-015 -1.59028e-015 1.59028e-015 -3.18055e-015 -3.18055e-015 0 3.18055e-015 -4.77083e-015 -1.59028e-015 -0 -1.59028e-015 1.59028e-015 -3.18055e-015 -3.18055e-015 0 3.18055e-015 -4.77083e-015 -1.59028e-015 -0 3.18055e-015 -7.95139e-016 -3.18055e-015 -1.59028e-015 1.59028e-015 -3.18055e-015 -3.18055e-015 0 3.18055e-015 -4.77083e-015 -1.59028e-015 -0 -1.59028e-015 1.59028e-015 -3.18055e-015 -3.18055e-015 0 3.18055e-015 -4.77083e-015 -1.59028e-015 -0 10.6306 -7.47029 15.5845 49.1245 -0.54636 19.7233 24.9794 37.4526 50.0385 -43.9669 -17.7608 6.15684 -3.18055e-015 1.11319e-014 3.18055e-015 -3.18055e-015 9.54166e-015 -3.18055e-015 -6.36111e-015 9.54166e-015 6.36111e-015 -8.82781e-032 1.59028e-015 3.18055e-015 -1.11319e-014 1.43125e-014 6.36111e-015 0 1.27222e-014 -0 -3.18055e-015 6.36111e-015 -3.18055e-015 -1.11319e-014 1.43125e-014 6.36111e-015 0 1.27222e-014 -0 -3.18055e-015 6.36111e-015 -3.18055e-015 -8.82781e-032 1.59028e-015 3.18055e-015 -1.11319e-014 1.43125e-014 6.36111e-015 0 1.27222e-014 -0 -3.18055e-015 6.36111e-015 -3.18055e-015 -1.11319e-014 1.43125e-014 6.36111e-015 0 1.27222e-014 -0 -3.18055e-015 6.36111e-015 -3.18055e-015 10.2156 -34.7793 19.9775 73.7547 88.2646 -69.5994 -24.3869 59.3228 34.3512 -10.3728 -34.78 -20.1656 -74.6414 88.1223 70.556 25.6283 60.4181 -35.5033 
1.75363 48.677 7.77105 0 28.9934 -0 -0.29283 2.65621 -0.5891 -0.559172 5.31529 -1.16647 -0.559172 5.3153 -1.16647 5.7137e-006 -19.0053 -2.14455e-006 1.14424e-007 15.1155 -1.02173e-008 -13.4097 -6.38121 -16.7875 -48.47 -0.64894 -20.2331 -25.8134 39.0896 -50.5319 52.4848 -18.39 -3.68163 6.36111e-015 1.19271e-014 -3.18055e-015 2.84266e-006 -4.12587e-006 -4.28069e-006 -1.59028e-015 -3.97569e-015 6.36111e-015 1.59028e-015 1.59028e-015 -3.18055e-015 -4.01665e-030 1.03368e-014 2.22639e-014 2.84266e-006 -4.12587e-006 -4.28069e-006 -1.59028e-015 -1.59028e-015 -0 -4.01665e-030 1.03368e-014 2.22639e-014 2.84266e-006 -4.12587e-006 -4.28069e-006 -1.59028e-015 -1.59028e-015 -0 1.59028e-015 1.59028e-015 -3.18055e-015 -4.01665e-030 1.03368e-014 2.22639e-014 2.84266e-006 -4.12587e-006 -4.28069e-006 -1.59028e-015 -1.59028e-015 -0 -4.01665e-030 1.03368e-014 2.22639e-014 2.84266e-006 -4.12587e-006 -4.28069e-006 -1.59028e-015 -1.59028e-015 -0 10.3995 -7.51755 15.7058 49.0902 -0.552356 19.9793 24.9794 37.4526 50.0385 -44.0768 -17.9453 5.6773 6.36111e-015 -1.59028e-015 -3.18055e-015 1.47624e-006 2.15062e-006 -2.07689e-006 1.59028e-015 -9.54166e-015 -1.27222e-014 4.77083e-015 -1.59028e-015 -3.18055e-015 1.59028e-015 -1.59028e-015 -6.36111e-015 1.47624e-006 2.15062e-006 -2.07689e-006 -0 -3.18055e-015 -0 1.59028e-015 -1.59028e-015 -6.36111e-015 1.47624e-006 2.15062e-006 -2.07689e-006 -0 -3.18055e-015 -0 4.77083e-015 -1.59028e-015 -3.18055e-015 1.59028e-015 -1.59028e-015 -6.36111e-015 1.47624e-006 2.15062e-006 -2.07689e-006 -0 -3.18055e-015 -0 1.59028e-015 -1.59028e-015 -6.36111e-015 1.47624e-006 2.15062e-006 -2.07689e-006 -0 -3.18055e-015 -0 10.2703 -35.1044 20.0591 83.1858 88.2915 -79.0125 -24.4099 59.3392 34.3806 -10.4275 -35.1049 -20.2461 -83.2941 88.1475 79.1889 25.6524 60.4337 -35.5336 
1.75363 48.6813 7.51585 0 28.9934 -0 -0.292174 2.56835 -0.590873 -0.558632 5.13958 -1.17038 -0.558632 5.13958 -1.17038 2.56435e-005 -19.0053 5.0132e-006 8.34351e-008 15.225 4.73438e-008 -13.4097 -6.38122 -16.7875 -48.47 -0.648953 -20.2331 -25.8134 39.0896 -50.5319 52.7787 -18.725 -3.12669 -1.59028e-015 2.38542e-015 3.18055e-015 -1.41285e-006 2.06814e-006 2.1372e-006 7.95139e-015 7.15625e-015 -9.54166e-015 -1.59028e-015 1.59028e-015 3.18055e-015 1.59028e-015 2.38542e-015 -3.18055e-015 -1.41285e-006 2.06814e-006 2.1372e-006 9.54166e-015 3.18055e-015 -0 1.59028e-015 2.38542e-015 -3.18055e-015 -1.41285e-006 2.06814e-006 2.1372e-006 9.54166e-015 3.18055e-015 -0 -1.59028e-015 1.59028e-015 3.18055e-015 1.59028e-015 2.38542e-015 -3.18055e-015 -1.41285e-006 2.06814e-006 2.1372e-006 9.54166e-015 3.18055e-015 -0 1.59028e-015 2.38542e-015 -3.18055e-015 -1.41285e-006 2.06814e-006 2.1372e-006 9.54166e-015 3.18055e-015 -0 10.1685 -7.56532 15.827 49.056 -0.558347 20.2353 24.9794 37.4526 50.0385 -44.1885 -18.1289 5.19688 1.4839e-006 2.149e-006 -2.07199e-006 1.4839e-006 2.149e-006 -2.07199e-006 1.4839e-006 2.149e-006 -2.07199e-006 1.59028e-015 6.36111e-015 -0 1.4839e-006 2.149e-006 -2.07199e-006 1.4839e-006 2.149e-006 -2.07199e-006 1.4839e-006 2.149e-006 -2.07199e-006 1.4839e-006 2.149e-006 -2.07199e-006 1.4839e-006 2.149e-006 -2.07199e-006 1.4839e-006 2.149e-006 -2.07199e-006 1.59028e-015 6.36111e-015 -0 1.4839e-006 2.149e-006 -2.07199e-006 1.4839e-006 2.149e-006 -2.07199e-006 1.4839e-006 2.149e-006 -2.07199e-006 1.4839e-006 2.149e-006 -2.07199e-006 1.4839e-006 2.149e-006 -2.07199e-006 1.4839e-006 2.149e-006 -2.07199e-006 10.3259 -35.4287 20.1416 92.6305 88.2715 -88.4399 -24.433 59.3556 34.4101 -10.4832 -35.4293 -20.3275 -91.9653 88.1298 87.8405 25.6765 60.4492 -35.5641 
1.75362 48.6854 7.26063 0 28.9934 -0 -0.291521 2.48053 -0.592642 -0.558103 4.96388 -1.17429 -0.558103 4.9639 -1.17428 3.00976e-005 -19.0054 1.01605e-005 3.78397e-007 14.7996 -1.78641e-007 -13.4097 -6.38127 -16.7875 -48.47 -0.648948 -20.2331 -25.8134 39.0896 -50.5319 53.0766 -19.0571 -2.56891 -1.59028e-015 4.77083e-015 -0 -6.36111e-015 3.18055e-015 -3.18055e-015 -6.36111e-015 3.97569e-015 -9.54166e-015 1.59028e-015 1.59028e-015 -0 -4.77083e-015 4.77083e-015 9.54166e-015 -4.77083e-015 4.77083e-015 -3.18055e-015 -3.18055e-015 4.77083e-015 -1.27222e-014 -4.77083e-015 4.77083e-015 9.54166e-015 -4.77083e-015 4.77083e-015 -3.18055e-015 -3.18055e-015 4.77083e-015 -1.27222e-014 1.59028e-015 1.59028e-015 -0 -4.77083e-015 4.77083e-015 9.54166e-015 -4.77083e-015 4.77083e-015 -3.18055e-015 -3.18055e-015 4.77083e-015 -1.27222e-014 -4.77083e-015 4.77083e-015 9.54166e-015 -4.77083e-015 4.77083e-015 -3.18055e-015 -3.18055e-015 4.77083e-015 -1.27222e-014 9.93753 -7.61363 15.948 49.0216 -0.564323 20.4913 24.9794 37.4526 50.0385 -44.3019 -18.3116 4.71566 1.49155e-006 2.14739e-006 -2.06705e-006 1.49155e-006 2.14739e-006 -2.06705e-006 1.49155e-006 2.14739e-006 -2.06705e-006 1.76556e-031 -3.18055e-015 3.18055e-015 1.49155e-006 2.14739e-006 -2.06705e-006 1.49155e-006 2.14739e-006 -2.06705e-006 1.49155e-006 2.14739e-006 -2.06705e-006 1.49155e-006 2.14739e-006 -2.06705e-006 1.49155e-006 2.14739e-006 -2.06705e-006 1.49155e-006 2.14739e-006 -2.06705e-006 1.76556e-031 -3.18055e-015 3.18055e-015 1.49155e-006 2.14739e-006 -2.06705e-006 1.49155e-006 2.14739e-006 -2.06705e-006 1.49155e-006 2.14739e-006 -2.06705e-006 1.49155e-006 2.14739e-006 -2.06705e-006 1.49155e-006 2.14739e-006 -2.06705e-006 1.49155e-006 2.14739e-006 -2.06705e-006 10.3819 -35.754 20.2247 101.65 88.2061 -97.4415 -24.4563 59.372 34.4398 -10.5394 -35.7538 -20.4097 -100.295 88.0707 96.1506 25.7008 60.4649 -35.5947 
1.75362 48.6895 7.00542 0 28.9934 -0 -0.290867 2.39265 -0.594401 -0.55758 4.78821 -1.17817 -0.55758 4.7882 -1.17817 -1.28719e-005 -19.0051 -4.75183e-006 4.6898e-007 12.9921 -2.80467e-007 -13.4097 -6.38126 -16.7875 -48.47 -0.648937 -20.2331 -25.8134 39.0896 -50.5319 53.3784 -19.3863 -2.00834 1.59028e-015 -3.97569e-015 -2.22639e-014 -1.59028e-015 -3.18055e-015 -9.54166e-015 -5.29669e-031 -4.77083e-015 -6.36111e-015 -3.53113e-031 -1.59028e-015 -1.27222e-014 -1.59028e-015 4.77083e-015 -6.36111e-015 -5.29669e-031 -2.38542e-015 -1.27222e-014 -1.59028e-015 -3.97569e-015 -6.36111e-015 -1.59028e-015 4.77083e-015 -6.36111e-015 -5.29669e-031 -2.38542e-015 -1.27222e-014 -1.59028e-015 -3.97569e-015 -6.36111e-015 -3.53113e-031 -1.59028e-015 -1.27222e-014 -1.59028e-015 4.77083e-015 -6.36111e-015 -5.29669e-031 -2.38542e-015 -1.27222e-014 -1.59028e-015 -3.97569e-015 -6.36111e-015 -1.59028e-015 4.77083e-015 -6.36111e-015 -5.29669e-031 -2.38542e-015 -1.27222e-014 -1.59028e-015 -3.97569e-015 -6.36111e-015 9.70669 -7.66234 16.0687 48.9872 -0.570296 20.7473 24.9794 37.4526 50.0385 -44.417 -18.4933 4.2336 1.59028e-015 -1.59028e-015 3.18055e-015 3.18055e-015 3.18055e-015 -3.18055e-015 1.59028e-015 1.59028e-015 6.36111e-015 1.59028e-015 -4.77083e-015 3.18055e-015 -1.59028e-015 6.36111e-015 -0 -3.18055e-015 4.77083e-015 3.18055e-015 -1.59028e-015 3.18055e-015 -3.18055e-015 -1.59028e-015 6.36111e-015 -0 -3.18055e-015 4.77083e-015 3.18055e-015 -1.59028e-015 3.18055e-015 -3.18055e-015 1.59028e-015 -4.77083e-015 3.18055e-015 -1.59028e-015 6.36111e-015 -0 -3.18055e-015 4.77083e-015 3.18055e-015 -1.59028e-015 3.18055e-015 -3.18055e-015 -1.59028e-015 6.36111e-015 -0 -3.18055e-015 4.77083e-015 3.18055e-015 -1.59028e-015 3.18055e-015 -3.18055e-015 10.4387 -36.0786 20.3088 109.83 88.1001 -105.604 -24.4798 59.3885 34.4697 -10.5965 -36.0778 -20.4927 -107.965 87.9738 103.8 25.7253 60.4806 -35.6255 
